<svg version="1.1" xmlns="http://www.w3.org/2000/svg" xmlns:xlink="http://www.w3.org/1999/xlink"  xml:space="preserve">
                    <style type="text/css">
                      .st1{fill:#FFFFFF;}
                    </style>
                    <path id="svg_1" d="m45.326042,18.473381c-7.676758,0 -11.903286,9.919403 -12.291431,15.526028c-0.345024,-0.043133 -0.690048,-0.043133 -1.03507,-0.086258c0.7763,-7.116096 5.649744,-12.334564 5.606619,-18.243076c0,-3.234588 -1.725117,-6.986711 -5.347851,-9.703764c-0.474409,-0.345023 -2.80331,-2.156392 -4.226532,-3.665866c-1.423216,1.509474 -3.752119,3.320843 -4.226524,3.665866c-3.62274,2.717054 -5.304726,6.42605 -5.347853,9.703764c-0.043127,5.908512 4.873446,11.12698 5.606619,18.243076c-0.345024,0.043125 -0.690046,0.043125 -1.035069,0.086258c-0.43128,-5.606625 -4.614677,-15.526028 -12.291435,-15.526028c-5.606618,0 -9.444996,5.347853 -8.280544,10.609449c0.776301,3.536482 4.01089,6.641695 7.849265,6.124159c-0.646917,-2.45829 0.474407,-5.218475 3.191461,-5.606627c3.062075,-0.431278 4.873447,2.587671 5.563494,5.08909c-1.768246,0.517536 -2.975824,1.293839 -2.975824,2.458286c0,1.25071 1.336962,2.027012 3.320847,2.544544c-0.733173,3.234589 -3.579612,4.528423 -6.339794,3.234589c0.172512,2.328903 2.070136,4.442169 4.485296,4.442169c3.19146,0 5.089085,-4.700935 5.434107,-7.116096c0.301895,0.043129 0.646919,0.043129 0.948812,0.043129c-0.301893,2.156391 -1.207579,4.700935 -2.932692,7.116093c1.250706,2.717052 4.140272,5.347855 6.986708,6.598557c2.846436,-1.250702 5.736002,-3.881504 6.986712,-6.598557c-1.725113,-2.415157 -2.630798,-4.959702 -2.93269,-7.116093c0.301891,0 0.646915,-0.043129 0.948811,-0.043129c0.388145,2.415161 2.28577,7.029839 5.434105,7.029839c2.415157,0 4.312782,-2.113266 4.485294,-4.442165c-2.760181,1.293835 -5.563492,0 -6.253536,-3.191463c1.983883,-0.517536 3.320843,-1.293835 3.320843,-2.54454c0,-1.164452 -1.164452,-1.940754 -2.932693,-2.415161c0.690044,-2.45829 2.501415,-5.520369 5.563492,-5.08909c2.673923,0.388151 3.838379,3.148336 3.148335,5.606627c3.838375,0.517536 7.07296,-2.587677 7.849262,-6.124159c1.164452,-5.261597 -2.717052,-10.609449 -8.28054,-10.609449l0,0zm-35.192317,8.151163l-1.595729,2.587669l-0.517534,-2.80331l-2.501415,-0.388151l2.113264,-1.552601l-0.086255,-2.544542l2.113263,1.423218l2.458287,-0.948811l-0.99194,2.328901l2.113264,1.897627l-3.105205,0zm17.854924,-17.121751c0.474407,7.116094 1.25071,16.949239 1.121325,24.324103c-0.388149,0 -0.7763,0 -1.121325,0c-0.388151,0 -0.776299,0 -1.121323,0c-0.129385,-7.331738 0.646917,-17.164883 1.121323,-24.324103l0,0zm0,39.030696c-0.560659,-2.156391 -0.991938,-6.081024 -1.16445,-8.108032c0.388151,0 0.776299,0 1.16445,0c0.388151,0 0.776302,0 1.164454,0c-0.129383,2.070137 -0.60379,5.951641 -1.164454,8.108032l0,0zm20.054445,-22.081457l-0.517536,2.803308l-1.59573,-2.587669l-3.062077,0l2.113266,-1.897625l-0.991943,-2.328903l2.45829,0.948812l2.113262,-1.423218l-0.086254,2.54454l2.113262,1.552603l-2.54454,0.388151z" class="st1"/>
                </svg>